<svg xmlns="http://www.w3.org/2000/svg" viewBox="0 0 96 96" role="img" aria-label="Tuti's">
  <!-- carita verde (vaso en forma de U) -->
  <path fill="#8CC63F" d="M26 43c0-2 1-3 3-3h38c2 0 3 1 3 3v20a22 22 0 0 1-44 0z"/>
  <!-- soft-serve magenta (capas que suben a un pico) -->
  <g fill="#ED1C8E">
    <rect x="26" y="39" width="44" height="9" rx="4.5"/>
    <ellipse cx="47" cy="39" rx="21" ry="9"/>
    <ellipse cx="50" cy="31" rx="15.5" ry="7.5"/>
    <ellipse cx="47" cy="24" rx="10.5" ry="6.5"/>
    <path d="M43 25Q48 9 53 25Z"/>
  </g>
  <!-- brillos del remolino -->
  <path d="M36 37Q44 32 52 35" fill="none" stroke="#fff" stroke-width="2.8" stroke-linecap="round"/>
  <path d="M42 29Q46 26 51 28" fill="none" stroke="#fff" stroke-width="2.2" stroke-linecap="round"/>
  <!-- ojos -->
  <circle cx="42" cy="59" r="3.4" fill="#ED1C8E"/>
  <circle cx="54" cy="59" r="3.4" fill="#ED1C8E"/>
  <!-- sonrisa -->
  <path d="M42 66q6 6 12 0" fill="none" stroke="#ED1C8E" stroke-width="3" stroke-linecap="round"/>
</svg>
